<?xml version="1.0" standalone="no"?>
<!DOCTYPE svg PUBLIC "-//W3C//DTD SVG 20010904//EN"
 "http://www.w3.org/TR/2001/REC-SVG-20010904/DTD/svg10.dtd">
<svg version="1.0" xmlns="http://www.w3.org/2000/svg"
 width="287.000000pt" height="122.000000pt" viewBox="0 0 287.000000 122.000000"
 preserveAspectRatio="xMidYMid meet">

<g transform="translate(0.000000,122.000000) scale(0.100000,-0.100000)"
fill="#FF0000" stroke="none">
<path d="M1743 1099 c-6 -6 -37 -117 -69 -245 l-59 -234 -150 0 -151 0 -33
-75 c-18 -41 -36 -75 -40 -75 -3 0 -28 96 -54 213 -27 116 -52 216 -57 221
-20 20 -39 -9 -100 -153 l-65 -151 -208 0 c-179 0 -208 -2 -214 -16 -3 -8 -2
-19 3 -24 5 -5 106 -10 224 -11 l215 -1 59 136 c33 75 62 136 65 136 3 0 28
-96 54 -213 26 -116 52 -216 57 -221 18 -18 38 5 76 93 l39 90 155 3 155 3 50
198 c27 108 52 197 55 197 3 0 25 -162 49 -360 58 -470 51 -435 81 -435 27 0
19 -23 116 343 l16 62 179 0 c154 0 180 2 186 16 3 8 2 19 -3 24 -5 5 -94 10
-199 11 l-190 2 -44 -169 c-24 -93 -46 -171 -48 -173 -11 -14 -20 47 -64 401
-27 216 -51 398 -53 405 -7 16 -18 17 -33 2z"/>
</g>
</svg>
